<svg width="201" height="303" viewBox="0 0 201 303" fill="none" xmlns="http://www.w3.org/2000/svg">
<path d="M106.354 116.313C94.4763 120.552 69.2759 128.831 57.1503 135.53C46.3791 141.48 41.9564 147.904 46.4367 159.247C51.6502 172.447 62.6653 179.912 75.3557 185.078C81.6052 187.622 86.152 188.4 92.6775 186.948C97.1253 185.959 99.71 184.105 103.474 182.267C106.791 180.648 98.9575 188.107 96.6052 190.952C90.4947 198.34 87.604 209.01 86.8391 218.377C85.6654 232.748 95.1009 246.22 106.608 253.751C121.389 263.423 145.28 265.046 156.798 249.369C161.599 242.835 163.324 234.964 164.637 227.111C165.545 221.677 166.145 216.19 166.671 210.708C167.017 207.106 166.77 207.6 167.567 210.178C174.188 231.616 194.907 248.494 218.749 242.486C242.726 236.443 255.184 213.849 261.303 191.874C262.998 185.786 265.462 173.699 259.067 168.849C251.9 163.413 240.511 162.394 231.938 161.216C229.05 160.819 226.092 160.985 223.226 160.454C221.005 160.044 225.49 156.478 227.105 154.899C233.674 148.478 241.061 142.434 246.49 134.961C250.318 129.69 250.937 123.649 250.933 117.264C250.923 100.623 240.784 86.556 225.177 80.6863C210.63 75.2158 199.264 84.5943 192.968 97.3779C191.146 101.076 190.01 105.543 187.503 108.864C186.809 109.784 184.303 95.598 184.008 94.0628C179.242 69.3418 167.012 45.7482 137.883 47.2896C125.295 47.9557 117.541 54.6111 110.604 64.3424C106.473 70.1376 101.95 76.3245 100.516 83.4542C98.1388 95.2708 100.979 105.166 108.257 114.491" stroke="black" stroke-width="6" stroke-linecap="round"/>
<path d="M120.514 197.7C118.816 202.76 116.225 210.177 114.779 215.516C114.352 217.094 113.372 221.035 113.588 223.123C114.369 230.677 124.105 235.52 130.57 236.217C146.664 237.952 148.234 221.085 149.057 209.191" stroke="black" stroke-width="6" stroke-linecap="round"/>
<path d="M185.726 199.406C193.282 206.433 200.693 214.029 208.902 220.334C210.373 221.464 210.646 221.757 212.107 221.521C214.362 221.157 216.642 220.277 218.803 219.562C226.887 216.886 232.272 207.751 236.93 201.15C238.646 198.717 239.446 196.129 239.552 193.122C239.679 189.518 236.593 186.29 234.096 184.069C231.254 181.542 227.962 179.847 224.252 179.043C219.37 177.984 213.943 179.296 209.063 179.901" stroke="black" stroke-width="6" stroke-linecap="round"/>
<path d="M201.381 118.025C206.427 114.705 215.605 108.522 221.237 105.295C222.345 104.661 225.975 102.425 228.099 102.671C228.673 102.737 229.863 104.249 230.33 104.683C232.144 106.366 232.757 109.507 233.185 111.805C234.258 117.561 232.879 123.259 230.156 128.371C227.93 132.549 223.958 135.729 220.419 138.734" stroke="black" stroke-width="6" stroke-linecap="round"/>
<path d="M127.473 103.752C126.962 98.5532 125.837 87.543 125.419 81.8316C125.328 80.586 124.964 76.518 125.374 74.612C125.52 73.9347 126.498 73.0664 127.038 72.6768C132.801 68.523 141.677 68.1627 148.456 68.4532C154.163 68.6978 156.914 71.3222 159.848 75.9821C164.565 83.4737 165.199 93.0717 167.13 101.524" stroke="black" stroke-width="6" stroke-linecap="round"/>
<path d="M98.9974 135.011C93.2743 138.92 82.4441 145.859 77.0537 151.056C74.8198 153.21 71.9106 156.441 73.1518 159.981C73.5639 161.156 77.0157 163.974 78.0103 164.538C81.786 166.679 86.1497 166.668 90.3294 166.264C94.2234 165.889 99.9876 165.343 103.341 162.848" stroke="black" stroke-width="6" stroke-linecap="round"/>
<path d="M147.682 143.23C144.425 145.231 142.015 146.391 142.44 150.487C143.344 159.185 155.722 159.262 161.288 155.271C163.946 153.365 165.002 151.572 164.218 148.3C163.334 144.618 160.382 141.45 156.581 140.545C153.943 139.917 150.362 141.841 147.975 142.642" stroke="black" stroke-width="6" stroke-linecap="round"/>
<path d="M151.11 130.077C149.115 119.778 148.443 109.2 147.233 98.7952" stroke="black" stroke-width="6" stroke-linecap="round"/>
<path d="M128.895 151.491L105.979 151.093" stroke="black" stroke-width="6" stroke-linecap="round"/>
<path d="M145.822 169.822L136.468 195.252" stroke="black" stroke-width="6" stroke-linecap="round"/>
<path d="M166.741 162.805L188.071 178.925" stroke="black" stroke-width="6" stroke-linecap="round"/>
<path d="M172.878 144.579L199.226 134.027" stroke="black" stroke-width="6" stroke-linecap="round"/>
<path d="M164.344 130.827L169.546 123.646" stroke="black" stroke-width="6" stroke-linecap="round"/>
<path d="M138.68 134.541C135.614 133.943 132.609 132.774 129.63 131.869" stroke="black" stroke-width="6" stroke-linecap="round"/>
<path d="M133.685 165.844L124 172.626" stroke="black" stroke-width="6" stroke-linecap="round"/>
<path d="M156.432 171.262L157.997 179.979" stroke="black" stroke-width="6" stroke-linecap="round"/>
<path d="M175.39 154.847C179.131 155.319 182.884 155.616 186.638 155.967" stroke="black" stroke-width="6" stroke-linecap="round"/>
</svg>
