<svg width="603" height="648" viewBox="0 0 603 648" fill="none" xmlns="http://www.w3.org/2000/svg">
<path d="M233.912 97.3201C252.085 124.847 267.267 160.801 300.416 171.457C320.139 177.798 340.466 178.764 360.382 183.773C380.624 188.863 404.001 204.023 403.639 227.545C403.573 231.809 401.778 235.647 400.561 239.649C396.844 251.875 395.829 264.388 396.176 277.128C396.846 301.769 405.208 325.584 412.291 348.97C423.231 385.091 440.904 425.857 406.63 455.84C391.478 469.095 374.951 460.412 358.132 457.233C332.528 452.394 313.107 460.876 302.317 484.202C297.638 494.316 288.035 503.477 276.873 506.377C268.567 508.535 257.161 500.725 249.899 497.698C232.104 490.28 207.363 490.772 190.855 500.968C174.385 511.141 174.554 533.257 176.224 550.224" stroke="black" stroke-width="8" stroke-linecap="round"/>
<path d="M197.874 133.26C227.295 162.495 256.074 193.917 288.385 220.13C294.427 225.032 295.556 225.98 301.716 226.144C306.891 226.282 312.087 226.161 317.263 226.17C333.305 226.197 345.101 228.402 346.852 247.137C348.921 269.269 341.812 291.273 343.589 313.669C345.593 338.92 357.624 355.282 369.431 376.78C377.943 392.28 369.101 407.946 353.4 414.384C339.732 419.989 321.819 404.067 309.618 400.646C283.344 393.281 284.95 406.426 278.48 426.452C271.198 448.992 238.384 436.305 222.479 432.35C208.217 428.803 195.064 424.181 181.823 433.648C170.498 441.746 164.373 454.632 157.608 466.193" stroke="black" stroke-width="8" stroke-linecap="round"/>
<path d="M186.609 182.241C208.916 218.145 231.632 267.621 281.095 267.704C293.442 267.724 293.888 280.914 294.319 291C294.602 297.619 294.402 304.283 294.391 310.905C294.375 320.33 297.674 335.467 294.335 344.289C288.501 359.702 270.107 354.59 257.89 359.078C243.779 364.261 245.793 380.778 235.314 388.949C222.416 399.006 215.681 390.492 203.743 385.105C192.695 380.12 181.882 374.545 169.648 379.361C161.175 382.696 161.499 392.241 159.719 400.196" stroke="black" stroke-width="8" stroke-linecap="round"/>
<path d="M171.861 236.216C182.62 248.179 193.068 261.338 206.02 271.116C215.022 277.912 225.563 281.633 234.166 289.153C239.372 293.704 242.999 298.38 244.849 305.015C245.973 309.044 247.761 314.503 246.328 318.681C243.322 327.444 236.07 334.736 226.938 335.858C219.162 336.813 212.723 339.408 212.225 348.326C212.04 351.617 212.888 353.174 209.275 354.795C204.314 357.021 198.777 354.54 193.768 353.728C186.014 352.471 177.466 352.339 170.159 355.608C164.368 358.199 160.37 362.007 155.776 366.189" stroke="black" stroke-width="8" stroke-linecap="round"/>
<path d="M166.266 282.207C172.295 286.491 186.49 296.442 192.85 301.43C194.904 303.041 201.618 308.339 203.202 311.654C207.845 321.366 186.669 327.25 181.411 329.073C174.705 331.399 166.67 332.898 160.824 337.198" stroke="black" stroke-width="8" stroke-linecap="round"/>
</svg>
