<svg width="383" height="659" viewBox="0 0 383 659" fill="none" xmlns="http://www.w3.org/2000/svg">
<path d="M-14.5203 108.749C5.79428 134.736 23.8014 169.362 57.6958 177.335C77.8623 182.079 98.2009 181.418 118.454 184.819C139.038 188.275 163.551 201.519 165.07 224.994C165.345 229.25 163.863 233.219 162.97 237.306C160.241 249.789 160.23 262.343 161.594 275.016C164.231 299.524 174.469 322.594 183.398 345.34C197.19 380.471 218.064 419.694 186.295 452.32C172.251 466.743 155.083 459.409 138.064 457.584C112.155 454.806 93.4744 464.813 84.583 488.927C80.7273 499.383 71.8867 509.282 60.9919 513.065C52.8848 515.88 40.8919 509.006 33.4104 506.569C15.0803 500.597 -9.54222 503.065 -25.1827 514.547C-40.7872 526.003 -38.8514 548.036 -35.8309 564.815" stroke="black" stroke-width="8" stroke-linecap="round"/>
<path d="M-47.5715 147.454C-15.9079 174.244 15.2896 203.266 49.5926 226.814C56.0072 231.217 57.2083 232.071 63.3617 231.743C68.531 231.467 73.7006 230.931 78.8612 230.526C94.8539 229.271 106.788 230.526 110.031 249.062C113.862 270.958 108.534 293.459 112.095 315.641C116.11 340.651 129.41 356 142.897 376.486C152.621 391.256 145.059 407.579 129.923 415.251C116.746 421.93 97.6186 407.49 85.1829 405.055C58.4043 399.813 61.0561 412.788 56.2071 433.267C50.7493 456.317 17.027 446.293 0.856588 443.621C-13.6431 441.225 -27.1236 437.669 -39.5657 448.164C-50.2078 457.141 -55.2832 470.476 -61.1032 482.54" stroke="black" stroke-width="8" stroke-linecap="round"/>
<path d="M-54.8858 197.179C-29.7809 231.186 -3.18414 278.688 46.1273 274.817C58.4362 273.851 59.9347 286.964 61.1704 296.983C61.9813 303.557 62.3146 310.216 62.8328 316.818C63.5702 326.214 68.0688 341.039 65.4449 350.1C60.8611 365.929 42.1182 362.304 30.2984 367.753C16.6465 374.048 19.9742 390.351 10.182 399.333C-1.87106 410.389 -9.2654 402.44 -21.5958 398.024C-33.0061 393.938 -44.2303 389.246 -56.0404 395.023C-64.2199 399.025 -63.1335 408.513 -64.273 416.586" stroke="black" stroke-width="8" stroke-linecap="round"/>
<path d="M-65.2735 252.16C-53.5936 263.224 -42.1267 275.507 -28.4352 284.218C-18.9188 290.273 -8.11371 293.141 1.06295 299.949C6.61582 304.069 10.6043 308.44 12.9789 314.906C14.4209 318.832 16.6402 324.131 15.5453 328.41C13.2487 337.385 6.60264 345.234 -2.4102 347.082C-10.0848 348.656 -16.2956 351.756 -16.0802 360.686C-16.0006 363.981 -15.0315 365.465 -18.5031 367.37C-23.2703 369.985 -28.9885 367.955 -34.0457 367.545C-41.8756 366.912 -50.4065 367.464 -57.429 371.306C-62.9951 374.351 -66.6754 378.467 -70.9211 383.003" stroke="black" stroke-width="8" stroke-linecap="round"/>
</svg>
