<svg width="659" height="460" viewBox="0 0 659 460" fill="none" xmlns="http://www.w3.org/2000/svg">
<path d="M108.749 397.135C134.735 376.821 169.361 358.814 177.335 324.919C182.079 304.753 181.417 284.414 184.818 264.161C188.275 243.577 201.519 219.064 224.994 217.545C229.25 217.27 233.219 218.752 237.305 219.645C249.789 222.374 262.343 222.385 275.015 221.022C299.524 218.384 322.594 208.146 345.339 199.217C380.471 185.425 419.694 164.551 452.32 196.32C466.743 210.364 459.409 227.532 457.584 244.551C454.806 270.46 464.813 289.141 488.927 298.032C499.383 301.888 509.282 310.728 513.065 321.623C515.88 329.73 509.006 341.723 506.568 349.205C500.596 367.535 503.064 392.157 514.547 407.798C526.003 423.402 548.035 421.466 564.815 418.446" stroke="black" stroke-width="8" stroke-linecap="round"/>
<path d="M147.454 430.186C174.244 398.523 203.266 367.325 226.813 333.022C231.217 326.608 232.071 325.407 231.743 319.253C231.467 314.084 230.931 308.914 230.526 303.754C229.271 287.761 230.526 275.827 249.062 272.584C270.958 268.753 293.459 274.081 315.641 270.52C340.651 266.505 356 253.205 376.486 239.718C391.255 229.994 407.578 237.556 415.251 252.692C421.93 265.869 407.49 284.996 405.055 297.432C399.813 324.211 412.787 321.559 433.267 326.408C456.317 331.866 446.292 365.588 443.621 381.758C441.225 396.258 437.669 409.738 448.164 422.181C457.141 432.823 470.475 437.898 482.54 443.718" stroke="black" stroke-width="8" stroke-linecap="round"/>
<path d="M197.178 437.501C231.185 412.396 278.687 385.799 274.817 336.488C273.851 324.179 286.963 322.68 296.983 321.444C303.557 320.634 310.216 320.3 316.818 319.782C326.214 319.045 341.038 314.546 350.1 317.17C365.929 321.754 362.303 340.497 367.753 352.316C374.048 365.968 390.351 362.641 399.333 372.433C410.389 384.486 402.44 391.88 398.024 404.211C393.938 415.621 389.245 426.845 395.023 438.655C399.025 446.835 408.513 445.748 416.586 446.888" stroke="black" stroke-width="8" stroke-linecap="round"/>
<path d="M252.16 447.889C263.224 436.209 275.507 424.742 284.218 411.05C290.273 401.534 293.14 390.729 299.949 381.552C304.069 375.999 308.44 372.011 314.906 369.636C318.832 368.194 324.131 365.975 328.41 367.07C337.385 369.366 345.234 376.012 347.082 385.025C348.655 392.7 351.756 398.911 360.686 398.695C363.981 398.616 365.465 397.647 367.37 401.118C369.985 405.885 367.954 411.604 367.545 416.661C366.911 424.491 367.463 433.022 371.306 440.044C374.351 445.61 378.466 449.29 383.003 453.536" stroke="black" stroke-width="8" stroke-linecap="round"/>
<path d="M298.451 449.791C302.24 443.439 311.024 428.494 315.488 421.755C316.929 419.58 321.674 412.464 324.852 410.62C334.162 405.216 341.719 425.853 343.957 430.949C346.811 437.448 348.947 445.338 353.701 450.821" stroke="black" stroke-width="8" stroke-linecap="round"/>
</svg>
