<svg width="265" height="306" viewBox="0 0 265 306" fill="none" xmlns="http://www.w3.org/2000/svg">
<path d="M162.119 235.184C172.384 214.822 188.449 191.736 194.945 169.559" stroke="black" stroke-width="6" stroke-linecap="round"/>
<path d="M150.382 231.676C159.849 204.946 174.504 179.723 186.716 154.313" stroke="black" stroke-width="6" stroke-linecap="round"/>
<path d="M132.029 223.208C138.856 204.329 147.622 185.193 152.747 165.713C153.356 163.396 154.305 162.164 155.901 160.447" stroke="black" stroke-width="6" stroke-linecap="round"/>
<path d="M118.961 218.45C122.967 200.493 125.191 178.196 132.67 161.175" stroke="black" stroke-width="6" stroke-linecap="round"/>
<path d="M94.438 219.218C103.641 200.338 108.057 176.278 111.46 155.59C111.824 153.378 111.679 151.14 111.609 148.915" stroke="black" stroke-width="6" stroke-linecap="round"/>
<path d="M209.582 194.332C219.497 205.742 224.508 215.194 240.026 211.419C244.997 210.209 247.135 202.198 247.814 198.054C248.683 192.752 249.816 189.993 246.336 185.8C244.738 183.875 239.806 181.905 242.837 181.81C252.338 181.512 258.827 182.378 259.84 171.528C261.082 158.234 261.833 145.231 250.418 135.652C244.405 130.605 233.541 141.196 237.198 132.786C243.573 118.125 251.298 95.1152 246.914 79.0896C243.96 68.2926 223.754 45.8683 211.932 59.7765C208.166 64.2069 205.716 69.7749 201.71 74.037C200.09 75.76 183.669 27.6956 180.217 19.5874C170.931 -2.22394 151.844 -0.478892 140.115 20.2061C134.133 30.7552 133.334 44.1373 129.37 55.6211C128.639 57.7395 125.473 72.8502 123.359 73.303C122.442 73.4996 116.21 62.4638 115.513 61.522C105.228 47.6288 100.322 33.3945 83.28 28.0914C64.9237 22.3795 67.2604 52.2983 67.6079 63.3875C67.8452 70.9627 70.6857 79.4887 76.1266 84.9876C79.5423 88.4397 84.6994 92.732 75.8622 91.1004C60.1347 88.1966 40.9944 109.251 39.9695 124.206C38.8814 140.083 47.9055 150.291 62.1475 156.858C70.722 160.811 81.5571 160.685 86.8057 152.258" stroke="black" stroke-width="6" stroke-linecap="round"/>
<path d="M99.2576 132.507C92.8887 130.68 90.7075 130.292 89.1094 123.519C87.3884 116.226 92.5973 111.967 98.4879 109.804C99.7171 109.353 101.114 109.164 102.339 109.743C102.868 109.993 106.54 112.728 106.907 112.046C107.545 110.858 105.274 108.343 104.753 107.579C103.327 105.493 101.966 103.435 101.536 100.88C100.333 93.7303 105.476 93.3234 110.725 92.3005C116.672 91.1416 118.157 100.036 122.593 102.129C122.895 102.272 123.403 97.9871 123.423 97.8678C123.902 94.9366 124.273 91.9754 124.81 89.0556C125.427 85.7045 126.254 81.862 128.173 78.9884C132.063 73.1649 137.625 65.557 144.374 63.1504C146.988 62.2182 151.668 62.2989 154.24 63.1395C157.122 64.0814 157.803 66.6386 158.118 69.52C158.808 75.8179 157.668 80.3696 154.777 85.8499C154.233 86.8813 153.524 88.4195 152.539 88.9622" stroke="black" stroke-width="6" stroke-linecap="round"/>
<path d="M173.204 94.1739C181.377 92.89 189.633 91.2746 197.903 90.6879C199.317 90.5876 200.673 90.4792 201.888 91.2706C205.208 93.4333 203.812 99.0732 201.918 101.676C201.09 102.814 197.441 103.743 198.688 104.401C199.244 104.695 200.858 104.451 201.294 104.437C205.087 104.318 208.891 104.274 212.678 104.022C218.464 103.636 224.077 102.314 229.798 101.48C231.368 101.252 232.491 102.552 233.247 103.849C234.977 106.815 234.435 111.583 234.331 114.811C234.159 120.156 233.757 123.386 230.627 127.927C226.088 134.513 220.04 135.991 212.291 135.135C209.262 134.8 210.281 135.027 212.379 136.989C215.463 139.873 219.344 143.164 223 145.265C227.414 147.801 233.042 148.597 236.833 152.142C239.041 154.208 238.586 156.766 237.744 159.484C236.032 165.005 232.786 172.347 225.939 171.056C221.645 170.246 220.039 169.294 216.792 166.331C215.782 165.409 218.657 168.775 218.983 169.181C220.762 171.395 221.962 173.919 223.614 176.199C224.958 178.055 224.941 179.962 225.777 181.939C226.928 184.663 225.6 185.394 223.134 185.471C217.502 185.647 214.133 183.994 209.499 181.122" stroke="black" stroke-width="6" stroke-linecap="round"/>
<path d="M188.503 128.873C187.746 131.675 186.65 136.052 185.591 138.895C185.195 139.958 184.573 141.514 183.553 142.269C183.124 142.586 181.423 142.898 180.905 142.663C180.141 142.318 178.95 140.72 178.666 140.359C177.414 138.77 175.221 135.751 174.136 134.097C172.623 131.789 171.58 129.59 170.979 126.916C170.948 126.78 170.662 125.014 170.578 125.753C170.112 129.855 167.989 133.581 165.385 136.65C161.421 141.318 155.824 144.001 149.891 145.002C145.744 145.702 142.904 144.48 140.028 141.414C134.731 135.766 134.23 128.481 133.998 121.083" stroke="black" stroke-width="6" stroke-linecap="round"/>
<path d="M160.596 104.1C159.55 106.267 157.229 111.157 155.962 113.504C155.589 114.196 154.789 115.777 153.926 116.367C153.28 116.809 151.973 116.55 151.294 116.414C148.009 115.756 144.859 114.001 142.239 111.972C140.393 110.543 139.786 108.917 139.285 106.754C138.59 103.754 138.529 100.746 138.433 97.6889" stroke="black" stroke-width="6" stroke-linecap="round"/>
<path d="M176.142 64.2094C173.529 53.5248 172.67 40.9202 164.986 32.5606C163.6 31.0534 161.99 28.3306 160.042 30.7373C157.109 34.3601 156.626 38.604 154.794 42.6229" stroke="black" stroke-width="6" stroke-linecap="round"/>
<path d="M188.295 222.688C197.026 227.153 206.283 231.233 214.629 236.433C216.119 237.361 216.678 238.887 217.199 240.482C217.67 241.923 218.114 243.187 217.222 244.558C214.414 248.873 210.265 253.73 206.016 256.691C203.189 258.662 202.089 261.374 204.838 264.356C207.152 266.866 209.634 268.946 212.699 270.421C215.032 271.544 221.857 273.833 221.55 277.035C220.906 283.76 216.452 287.101 211.171 290.405C204.941 294.304 198.668 294.163 192.069 291.162C183.764 287.385 178.499 282.497 174.002 274.659C171.101 269.601 170.336 263.473 168.332 258.03C167.237 255.056 165.381 253.11 162.064 252.519C153.651 251.02 146.504 256.596 141.334 262.532C133.51 271.516 127.679 283.879 114.562 285.963C111.177 286.501 108.144 280.483 107.063 278.045C103.103 269.117 103.993 259.255 104.945 249.864C105.395 245.427 107.825 237.189 100.768 236.45C94.3252 235.775 86.4748 243.541 81.9745 247.06C77.1347 250.844 72.4962 254.932 67.5167 258.533C65.296 260.138 62.6807 262.189 60.0396 263.054C42.5832 268.772 31.4018 243.645 30.2153 230.166C29.091 217.394 40.9494 209.788 52.6056 209.423C53.5155 209.394 56.2681 209.839 56.7639 208.819C57.991 206.297 58.0387 202.254 56.9532 199.766C54.6179 194.414 47.7104 188.617 49.0428 182.077C49.5316 179.678 54.6189 179.557 56.3373 179.271C59.5304 178.738 61.8268 178.83 64.6254 180.51C68.7998 183.015 72.1783 186.228 76.0099 189.174C77.966 190.679 81.0961 192.846 81.9799 195.247" stroke="black" stroke-width="6" stroke-linecap="round"/>
<path d="M78.9912 220.994L52.7768 250.238" stroke="black" stroke-width="6" stroke-linecap="round"/>
<path d="M127.474 242.729C123.823 252.331 121.964 262.817 119.369 272.698" stroke="black" stroke-width="6" stroke-linecap="round"/>
<path d="M183.134 246.153C186.315 254.548 189.701 262.92 192.468 271.462C192.894 272.774 193.024 273.175 193.059 274.265" stroke="black" stroke-width="6" stroke-linecap="round"/>
<path d="M156.96 276.688L160.309 301.13" stroke="black" stroke-width="6" stroke-linecap="round"/>
<path d="M83.2305 273.831L71.0113 296.176" stroke="black" stroke-width="6" stroke-linecap="round"/>
<path d="M31.8393 200.508L5.29795 178.085" stroke="black" stroke-width="6" stroke-linecap="round"/>
<path d="M227.461 258.976C234.045 260.799 240.555 262.727 247.023 264.823" stroke="black" stroke-width="6" stroke-linecap="round"/>
</svg>
