<svg width="475" height="530" viewBox="0 0 475 530" fill="none" xmlns="http://www.w3.org/2000/svg">
<path d="M206.283 207.487C213.138 214.854 218.597 222.452 224.45 230.296C227.821 234.814 232.157 242.512 232.018 248.33C231.829 256.239 228.567 264.95 226.056 272.369C221.805 284.93 228.472 296.729 233.229 308.239C235.203 313.013 237.325 316.985 240.372 321.148C244.264 326.468 249.392 330.892 253.584 335.99C255.248 338.013 256.185 340.423 258.127 342.233C258.961 343.01 259.764 343.438 260.929 343.131C264.765 342.119 268.687 342.363 272.68 341.871C277.167 341.318 282.93 338.662 286.314 335.552C289.539 332.588 293.423 330.91 296.669 327.889C299.661 325.104 304.399 324.563 307.151 321.575C308.813 319.771 312.127 317.843 314.227 316.627C316.633 315.233 316.734 312.861 317.807 310.731C320.475 305.432 317.161 296.986 314.001 292.592C305.838 281.242 302.445 267.699 295.292 255.578C292.735 251.246 288.606 248.731 285.62 244.891C282.967 241.48 279.848 238.507 276.693 235.568C271.717 230.932 268.245 232.976 262.291 233.838C254.587 234.952 249.3 230.448 247 222.941C245.4 217.72 242.473 212.46 240.559 207.26C238.702 202.216 234.79 197.51 231.049 193.746C228.376 191.056 222.708 186.681 218.639 186.836C216.131 186.932 213.802 190.168 211.545 191.282C209.508 192.287 207.048 195.687 206.065 197.754C204.203 201.669 205.066 204.194 207 208.155" stroke="black" stroke-width="6.8" stroke-linecap="round"/>
<path d="M214.305 211.101C219.827 207.501 226.145 204.332 228.055 197.188" stroke="black" stroke-width="6.8" stroke-linecap="round"/>
<path d="M231.832 296.118C239.808 290.045 247.672 283.863 256.348 278.754C262.149 275.339 268.335 272.526 274.353 269.503C279.988 266.671 285.72 263.823 290.905 260.229C292.399 259.193 293.795 256.817 295.465 256.201" stroke="black" stroke-width="6.8" stroke-linecap="round"/>
<path d="M243.549 322.447C259.967 312.221 276.882 302.462 292.989 291.83C296.117 289.766 299.568 287.358 301.704 284.365C302.804 282.825 303.917 281.273 305.297 279.925" stroke="black" stroke-width="6.8" stroke-linecap="round"/>
<path d="M193.323 222.613C176.395 223.468 159.467 224.329 142.556 225.444" stroke="black" stroke-width="6.8" stroke-linecap="round"/>
<path d="M192.187 239.615C185.355 244.392 178.596 249.335 171.36 253.449C169.266 254.639 167.004 255.516 164.969 256.814C164.122 257.354 163.173 257.915 162.564 258.597" stroke="black" stroke-width="6.8" stroke-linecap="round"/>
<path d="M203.937 266.836L159.265 289.071" stroke="black" stroke-width="6.8" stroke-linecap="round"/>
<path d="M211.673 305.814C201.315 310.707 191.218 316.088 181.023 321.265" stroke="black" stroke-width="6.8" stroke-linecap="round"/>
<path d="M221.403 326.863L208.851 348.764" stroke="black" stroke-width="6.8" stroke-linecap="round"/>
<path d="M239.017 344.042C236.908 355.772 234.694 367.457 232.323 379.107" stroke="black" stroke-width="6.8" stroke-linecap="round"/>
<path d="M264.585 359.132C264.572 373.422 264.782 387.689 265.327 401.946" stroke="black" stroke-width="6.8" stroke-linecap="round"/>
<path d="M294.752 354.41L312.7 403.708" stroke="black" stroke-width="6.8" stroke-linecap="round"/>
<path d="M314.774 341.15C328.453 354.546 342.065 367.999 355.589 381.542" stroke="black" stroke-width="6.8" stroke-linecap="round"/>
<path d="M340.832 322.303L367.57 321.282" stroke="black" stroke-width="6.8" stroke-linecap="round"/>
<path d="M338.614 287.578L351.608 277.264" stroke="black" stroke-width="6.8" stroke-linecap="round"/>
<path d="M324.53 269.372C336.531 262.489 348.465 255.507 360.323 248.369" stroke="black" stroke-width="6.8" stroke-linecap="round"/>
<path d="M311.923 243.077L356.833 227.081" stroke="black" stroke-width="6.8" stroke-linecap="round"/>
<path d="M294.961 219.625C299.084 208.814 303.329 197.956 307.105 187.029" stroke="black" stroke-width="6.8" stroke-linecap="round"/>
<path d="M263.563 215.468C267.575 204.417 272.41 193.291 275.673 181.981" stroke="black" stroke-width="6.8" stroke-linecap="round"/>
<path d="M251.711 185.574L252.615 139.126" stroke="black" stroke-width="6.8" stroke-linecap="round"/>
<path d="M222.339 164.381L223.135 138.466" stroke="black" stroke-width="6.8" stroke-linecap="round"/>
<path d="M204.787 172.192L178.98 150.863" stroke="black" stroke-width="6.8" stroke-linecap="round"/>
<path d="M185.002 191.691L148.222 186.847" stroke="black" stroke-width="6.8" stroke-linecap="round"/>
<path d="M267.405 82.3301C269.489 92.3747 276.592 127.416 279.665 139.635C281.616 147.396 281.841 155.618 290.431 155.117C303.178 154.373 316.195 153.47 328.963 154.06C333.755 154.281 334.519 153.972 335.232 159.153C336.355 167.315 336.017 175.554 336.741 183.737C336.961 186.218 337.957 188.433 338.621 190.809C339.313 193.285 340.494 191.384 342.246 190.567C360.463 182.072 357.6 180.247 376.2 173.266" stroke="black" stroke-width="6.8" stroke-linecap="round"/>
<path d="M182.633 82.889C182.102 89.2771 180.705 107.853 179.607 115.26C178.736 121.134 178.55 124.869 172.737 125.928C159.781 128.288 146.706 129.909 133.657 131.634C125.056 132.771 116.447 134.565 107.949 136.309C104.163 137.086 100.65 137.546 101.268 142.391C102.436 151.542 107.278 160.641 110.145 169.314C112.852 177.503 116.436 184.226 106.715 187.029C91.5029 191.415 75.9221 194.47 60.571 198.312C56.9546 199.217 54.491 200.51 51.5167 202.143" stroke="black" stroke-width="6.8" stroke-linecap="round"/>
<path d="M99.5635 244.937C112.05 246.697 124.621 249.255 137.199 250.27C138.929 250.41 140.653 250.657 142.387 250.749C144.08 250.839 143.746 250.287 143.112 253.482C142.029 258.933 138.019 273.378 137.123 276.73C133.314 290.98 129.557 305.235 125.988 319.549C125.526 321.399 124.03 325.142 124.117 327.432C124.247 330.834 134.553 333.991 136.714 335.076C151.134 342.312 162.974 352.946 177.47 359.872C181.219 361.663 182.768 378.545 183.413 381.467C187.429 399.661 190.472 418.002 195.063 436.072C195.959 439.597 200.103 437.318 202.842 436.712C214.966 434.032 227.393 432.046 239.411 429.014C241.763 428.421 243.575 427.178 245.886 426.632C250.4 425.564 251.801 432.087 253.662 435.293C259.62 445.555 267.069 455.394 272.209 466.093C273.324 468.414 273.506 467.933 275.631 466.327C287.715 457.195 301.629 450.546 315.265 444.138C325.464 439.345 335.942 434.385 346.783 431.425" stroke="black" stroke-width="6.8" stroke-linecap="round"/>
</svg>
