<svg width="304" height="303" viewBox="0 0 304 303" fill="none" xmlns="http://www.w3.org/2000/svg">
<path d="M106.354 116.311C94.4761 120.55 69.2757 128.828 57.1501 135.527C46.3789 141.478 41.9561 147.901 46.4365 159.245C51.65 172.445 62.665 179.909 75.3554 185.075C81.605 187.619 86.1517 188.397 92.6773 186.946C97.125 185.957 99.7097 184.103 103.474 182.265C106.791 180.646 98.9572 188.105 96.605 190.949C90.4944 198.338 87.6038 209.008 86.8388 218.375C85.6652 232.746 95.1007 246.218 106.608 253.748C121.389 263.421 145.28 265.044 156.798 249.367C161.598 242.833 163.324 234.962 164.637 227.108C165.545 221.675 166.144 216.188 166.671 210.706C167.017 207.104 166.77 207.597 167.566 210.176C174.188 231.613 194.906 248.492 218.749 242.483C242.726 236.441 255.184 213.846 261.302 191.872C262.997 185.784 265.462 173.697 259.067 168.847C251.9 163.41 240.511 162.392 231.938 161.213C229.05 160.816 226.092 160.982 223.226 160.452C221.005 160.041 225.489 156.476 227.105 154.897C233.674 148.476 241.06 142.432 246.489 134.958C250.318 129.688 250.936 123.647 250.933 117.262C250.923 100.621 240.784 86.5536 225.176 80.684C210.63 75.2134 199.263 84.592 192.967 97.3756C191.146 101.074 190.01 105.541 187.503 108.862C186.809 109.782 184.303 95.5957 184.007 94.0604C179.242 69.3395 167.012 45.7459 137.883 47.2873C125.295 47.9534 117.541 54.6088 110.604 64.3401C106.473 70.1353 101.949 76.3222 100.515 83.4519C98.1386 95.2684 100.979 105.164 108.257 114.488" stroke="black" stroke-width="6" stroke-linecap="round"/>
<path d="M120.514 197.697C118.817 202.757 116.225 210.175 114.779 215.514C114.352 217.091 113.372 221.033 113.588 223.12C114.369 230.675 124.106 235.517 130.57 236.214C146.664 237.949 148.234 221.082 149.057 209.189" stroke="black" stroke-width="6" stroke-linecap="round"/>
<path d="M185.725 199.403C193.281 206.431 200.693 214.026 208.901 220.331C210.372 221.461 210.646 221.754 212.107 221.518C214.362 221.155 216.642 220.274 218.802 219.559C226.887 216.884 232.271 207.748 236.929 201.147C238.646 198.715 239.446 196.126 239.552 193.119C239.679 189.515 236.592 186.288 234.095 184.067C231.254 181.54 227.962 179.844 224.251 179.04C219.369 177.982 213.943 179.294 209.062 179.899" stroke="black" stroke-width="6" stroke-linecap="round"/>
<path d="M201.382 118.022C206.428 114.703 215.606 108.519 221.238 105.293C222.345 104.658 225.975 102.423 228.099 102.668C228.674 102.734 229.863 104.247 230.331 104.681C232.144 106.364 232.757 109.505 233.186 111.803C234.258 117.559 232.879 123.257 230.156 128.369C227.931 132.547 223.959 135.727 220.42 138.732" stroke="black" stroke-width="6" stroke-linecap="round"/>
<path d="M127.473 103.749C126.962 98.5507 125.837 87.5405 125.419 81.829C125.328 80.5834 124.963 76.5154 125.374 74.6094C125.52 73.9321 126.497 73.0638 127.038 72.6742C132.8 68.5204 141.677 68.1601 148.455 68.4506C154.163 68.6952 156.914 71.3196 159.848 75.9795C164.565 83.4712 165.199 93.0692 167.13 101.521" stroke="black" stroke-width="6" stroke-linecap="round"/>
<path d="M98.9974 135.009C93.2743 138.918 82.4441 145.857 77.0537 151.054C74.8198 153.207 71.9106 156.439 73.1518 159.978C73.5639 161.154 77.0157 163.972 78.0103 164.536C81.786 166.677 86.1497 166.665 90.3294 166.262C94.2234 165.886 99.9876 165.34 103.341 162.846" stroke="black" stroke-width="6" stroke-linecap="round"/>
<path d="M147.682 143.228C144.425 145.229 142.015 146.389 142.44 150.484C143.344 159.182 155.722 159.26 161.288 155.268C163.945 153.363 165.002 151.569 164.217 148.298C163.334 144.616 160.382 141.447 156.581 140.543C153.943 139.915 150.362 141.839 147.975 142.64" stroke="black" stroke-width="6" stroke-linecap="round"/>
<path d="M151.111 130.074C149.115 119.775 148.443 109.197 147.234 98.7928" stroke="black" stroke-width="6" stroke-linecap="round"/>
<path d="M128.895 151.489L105.979 151.09" stroke="black" stroke-width="6" stroke-linecap="round"/>
<path d="M145.822 169.819L136.468 195.249" stroke="black" stroke-width="6" stroke-linecap="round"/>
<path d="M166.741 162.803L188.071 178.922" stroke="black" stroke-width="6" stroke-linecap="round"/>
<path d="M172.877 144.577L199.226 134.025" stroke="black" stroke-width="6" stroke-linecap="round"/>
<path d="M164.344 130.825L169.546 123.644" stroke="black" stroke-width="6" stroke-linecap="round"/>
<path d="M138.681 134.539C135.614 133.941 132.609 132.772 129.63 131.866" stroke="black" stroke-width="6" stroke-linecap="round"/>
<path d="M133.686 165.841L124.001 172.623" stroke="black" stroke-width="6" stroke-linecap="round"/>
<path d="M156.433 171.259L157.997 179.976" stroke="black" stroke-width="6" stroke-linecap="round"/>
<path d="M175.39 154.844C179.131 155.316 182.884 155.613 186.638 155.965" stroke="black" stroke-width="6" stroke-linecap="round"/>
</svg>
