<svg width="269" height="300" viewBox="0 0 269 300" fill="none" xmlns="http://www.w3.org/2000/svg">
<path d="M116.782 117.464C120.663 121.635 123.754 125.936 127.067 130.377C128.976 132.935 131.431 137.293 131.352 140.586C131.245 145.064 129.398 149.996 127.977 154.196C125.57 161.307 129.344 167.986 132.038 174.502C133.155 177.205 134.357 179.454 136.081 181.811C138.285 184.822 141.188 187.327 143.561 190.213C144.503 191.358 145.033 192.723 146.133 193.748C146.605 194.188 147.06 194.43 147.719 194.256C149.891 193.683 152.111 193.821 154.372 193.542C156.912 193.23 160.175 191.726 162.091 189.965C163.916 188.287 166.115 187.337 167.952 185.627C169.647 184.05 172.329 183.744 173.887 182.052C174.828 181.031 176.704 179.94 177.893 179.251C179.255 178.462 179.312 177.119 179.919 175.913C181.43 172.913 179.554 168.132 177.765 165.644C173.143 159.219 171.222 151.552 167.173 144.69C165.726 142.237 163.388 140.814 161.698 138.64C160.196 136.708 158.43 135.026 156.644 133.362C153.827 130.737 151.861 131.894 148.49 132.382C144.129 133.013 141.136 130.463 139.834 126.213C138.928 123.257 137.271 120.28 136.187 117.336C135.136 114.48 132.921 111.816 130.803 109.685C129.29 108.162 126.081 105.685 123.778 105.773C122.358 105.827 121.039 107.659 119.761 108.29C118.608 108.859 117.216 110.784 116.659 111.954C115.605 114.17 116.093 115.6 117.189 117.842" stroke="black" stroke-width="5" stroke-linecap="round"/>
<path d="M121.324 119.51C124.45 117.472 128.027 115.678 129.108 111.633" stroke="black" stroke-width="5" stroke-linecap="round"/>
<path d="M131.247 167.641C135.762 164.203 140.214 160.703 145.126 157.811C148.41 155.877 151.912 154.285 155.319 152.573C158.509 150.97 161.755 149.358 164.69 147.323C165.535 146.736 166.326 145.391 167.271 145.042" stroke="black" stroke-width="5" stroke-linecap="round"/>
<path d="M137.88 182.546C147.174 176.757 156.75 171.232 165.869 165.213C167.64 164.045 169.594 162.681 170.803 160.987C171.425 160.115 172.056 159.237 172.837 158.473" stroke="black" stroke-width="5" stroke-linecap="round"/>
<path d="M109.446 126.027C99.862 126.511 90.2783 126.999 80.7043 127.63" stroke="black" stroke-width="5" stroke-linecap="round"/>
<path d="M108.803 135.653C104.935 138.357 101.108 141.156 97.0117 143.484C95.8267 144.158 94.5457 144.655 93.3938 145.39C92.9145 145.695 92.3772 146.013 92.0325 146.399" stroke="black" stroke-width="5" stroke-linecap="round"/>
<path d="M115.454 151.063L90.1645 163.651" stroke="black" stroke-width="5" stroke-linecap="round"/>
<path d="M119.834 173.13C113.97 175.9 108.254 178.946 102.483 181.877" stroke="black" stroke-width="5" stroke-linecap="round"/>
<path d="M125.342 185.046L118.236 197.445" stroke="black" stroke-width="5" stroke-linecap="round"/>
<path d="M135.314 194.772C134.12 201.413 132.867 208.028 131.525 214.623" stroke="black" stroke-width="5" stroke-linecap="round"/>
<path d="M149.789 203.314C149.782 211.405 149.901 219.481 150.209 227.553" stroke="black" stroke-width="5" stroke-linecap="round"/>
<path d="M166.867 200.641L177.028 228.55" stroke="black" stroke-width="5" stroke-linecap="round"/>
<path d="M178.203 193.134C185.947 200.718 193.653 208.334 201.309 216.001" stroke="black" stroke-width="5" stroke-linecap="round"/>
<path d="M192.955 182.465L208.092 181.887" stroke="black" stroke-width="5" stroke-linecap="round"/>
<path d="M191.698 162.806L199.055 156.967" stroke="black" stroke-width="5" stroke-linecap="round"/>
<path d="M183.726 152.499C190.52 148.602 197.276 144.649 203.989 140.609" stroke="black" stroke-width="5" stroke-linecap="round"/>
<path d="M176.588 137.612L202.013 128.557" stroke="black" stroke-width="5" stroke-linecap="round"/>
<path d="M166.986 124.336C169.32 118.216 171.723 112.069 173.861 105.882" stroke="black" stroke-width="5" stroke-linecap="round"/>
<path d="M149.21 121.983C151.482 115.726 154.219 109.427 156.066 103.025" stroke="black" stroke-width="5" stroke-linecap="round"/>
<path d="M142.501 105.059L143.012 78.7633" stroke="black" stroke-width="5" stroke-linecap="round"/>
<path d="M125.873 93.0607L126.323 78.3897" stroke="black" stroke-width="5" stroke-linecap="round"/>
<path d="M115.935 97.4823L101.326 85.4075" stroke="black" stroke-width="5" stroke-linecap="round"/>
<path d="M104.735 108.522L83.9126 105.78" stroke="black" stroke-width="5" stroke-linecap="round"/>
<path d="M151.386 46.6094C152.565 52.2959 156.586 72.1335 158.326 79.0515C159.431 83.4452 159.558 88.1 164.421 87.8161C171.638 87.3949 179.007 86.8839 186.235 87.2177C188.948 87.343 189.381 87.168 189.784 90.1009C190.42 94.7217 190.229 99.3858 190.639 104.019C190.763 105.423 191.327 106.677 191.703 108.022C192.095 109.424 192.763 108.348 193.755 107.885C204.068 103.076 202.447 102.043 212.977 98.0907" stroke="black" stroke-width="5" stroke-linecap="round"/>
<path d="M103.394 46.9256C103.093 50.542 102.302 61.0587 101.68 65.2519C101.187 68.5771 101.082 70.6915 97.7911 71.291C90.4565 72.6271 83.0541 73.5449 75.667 74.5214C70.7978 75.1651 65.9237 76.181 61.1131 77.1683C58.9694 77.6082 56.9805 77.8684 57.3307 80.6114C57.992 85.792 60.7333 90.943 62.3562 95.853C63.8887 100.49 65.9178 104.296 60.4143 105.882C51.8023 108.365 42.9816 110.095 34.2909 112.27C32.2436 112.782 30.8489 113.514 29.165 114.439" stroke="black" stroke-width="5" stroke-linecap="round"/>
<path d="M56.3657 138.665C63.4349 139.662 70.5516 141.11 77.672 141.685C78.6516 141.764 79.6279 141.904 80.6093 141.956C81.5679 142.007 81.3789 141.694 81.0196 143.503C80.4065 146.589 78.1365 154.767 77.6293 156.664C75.4728 164.732 73.3457 172.802 71.3253 180.905C71.064 181.953 70.2169 184.072 70.2664 185.368C70.3399 187.294 76.1741 189.082 77.3977 189.696C85.5612 193.792 92.2643 199.813 100.471 203.734C102.593 204.748 103.47 214.305 103.835 215.959C106.109 226.259 107.832 236.643 110.431 246.872C110.938 248.868 113.284 247.578 114.835 247.235C121.698 245.718 128.734 244.593 135.538 242.877C136.869 242.541 137.895 241.837 139.203 241.528C141.759 240.924 142.552 244.616 143.605 246.431C146.978 252.241 151.195 257.811 154.105 263.868C154.737 265.182 154.84 264.91 156.042 264.001C162.884 258.831 170.761 255.067 178.481 251.439C184.254 248.726 190.186 245.917 196.324 244.242" stroke="black" stroke-width="5" stroke-linecap="round"/>
</svg>
