<svg width="269" height="277" viewBox="0 0 269 277" fill="none" xmlns="http://www.w3.org/2000/svg">
<path d="M97.2047 106.307C86.349 110.182 63.3165 117.748 52.234 123.871C42.3893 129.309 38.3471 135.18 42.442 145.548C47.207 157.612 57.2745 164.435 68.8732 169.156C74.5851 171.482 78.7407 172.192 84.7049 170.866C88.77 169.962 91.1324 168.267 94.573 166.588C97.6045 165.108 90.4446 171.925 88.2947 174.525C82.7098 181.278 80.0678 191.03 79.3687 199.591C78.296 212.726 86.9198 225.039 97.4373 231.922C110.946 240.762 132.782 242.246 143.31 227.917C147.697 221.945 149.274 214.751 150.474 207.573C151.304 202.607 151.852 197.592 152.333 192.582C152.649 189.29 152.424 189.741 153.152 192.097C159.204 211.691 178.14 227.117 199.931 221.626C221.846 216.103 233.232 195.452 238.824 175.368C240.373 169.804 242.626 158.757 236.781 154.324C230.23 149.355 219.821 148.424 211.986 147.347C209.346 146.984 206.643 147.136 204.023 146.651C201.993 146.276 206.092 143.017 207.568 141.574C213.572 135.705 220.323 130.181 225.285 123.351C228.784 118.534 229.35 113.012 229.346 107.176C229.338 91.9673 220.07 79.11 205.806 73.7453C192.511 68.7453 182.122 77.3171 176.367 89.001C174.703 92.3812 173.664 96.4639 171.373 99.4991C170.739 100.34 168.449 87.3742 168.178 85.971C163.823 63.3767 152.645 41.8127 126.022 43.2216C114.517 43.8304 107.429 49.9132 101.09 58.8074C97.314 64.104 93.1795 69.7587 91.8687 76.2751C89.6964 87.0751 92.2921 96.119 98.944 104.642" stroke="black" stroke-width="6" stroke-linecap="round"/>
<path d="M110.147 180.692C108.595 185.317 106.226 192.096 104.905 196.976C104.515 198.418 103.619 202.02 103.816 203.928C104.53 210.833 113.429 215.259 119.338 215.896C134.047 217.482 135.482 202.066 136.234 191.196" stroke="black" stroke-width="6" stroke-linecap="round"/>
<path d="M169.749 182.252C176.654 188.674 183.429 195.617 190.931 201.379C192.275 202.412 192.525 202.68 193.861 202.464C195.922 202.132 198.006 201.327 199.98 200.674C207.369 198.229 212.291 189.879 216.548 183.846C218.117 181.622 218.848 179.256 218.945 176.508C219.061 173.214 216.24 170.265 213.958 168.235C211.361 165.925 208.352 164.375 204.961 163.64C200.498 162.673 195.539 163.872 191.078 164.425" stroke="black" stroke-width="6" stroke-linecap="round"/>
<path d="M184.057 107.872C188.669 104.838 197.058 99.1859 202.205 96.237C203.217 95.6573 206.535 93.6139 208.477 93.8383C209.002 93.899 210.089 95.2812 210.516 95.6779C212.173 97.2162 212.734 100.087 213.125 102.187C214.106 107.448 212.845 112.656 210.357 117.328C208.322 121.147 204.692 124.053 201.458 126.799" stroke="black" stroke-width="6" stroke-linecap="round"/>
<path d="M116.507 94.8262C116.04 90.075 115.012 80.012 114.63 74.7919C114.546 73.6534 114.214 69.9354 114.589 68.1933C114.722 67.5743 115.616 66.7807 116.11 66.4246C121.376 62.6281 129.489 62.2988 135.685 62.5643C140.901 62.7879 143.416 65.1865 146.097 69.4456C150.409 76.2927 150.988 85.0651 152.753 92.7902" stroke="black" stroke-width="6" stroke-linecap="round"/>
<path d="M90.4813 123.397C85.2505 126.97 75.352 133.312 70.4253 138.061C68.3836 140.03 65.7246 142.983 66.859 146.218C67.2357 147.292 70.3906 149.868 71.2996 150.384C74.7506 152.341 78.7388 152.33 82.559 151.961C86.118 151.618 91.3863 151.119 94.4513 148.839" stroke="black" stroke-width="6" stroke-linecap="round"/>
<path d="M134.978 130.909C132.001 132.738 129.798 133.798 130.187 137.541C131.013 145.491 142.326 145.562 147.413 141.914C149.842 140.172 150.808 138.533 150.091 135.543C149.283 132.178 146.585 129.282 143.111 128.455C140.7 127.881 137.427 129.639 135.245 130.371" stroke="black" stroke-width="6" stroke-linecap="round"/>
<path d="M138.111 118.887C136.287 109.474 135.673 99.8059 134.567 90.2964" stroke="black" stroke-width="6" stroke-linecap="round"/>
<path d="M117.807 138.459L96.8623 138.095" stroke="black" stroke-width="6" stroke-linecap="round"/>
<path d="M133.278 155.213L124.728 178.455" stroke="black" stroke-width="6" stroke-linecap="round"/>
<path d="M152.397 148.8L171.892 163.532" stroke="black" stroke-width="6" stroke-linecap="round"/>
<path d="M158.006 132.142L182.087 122.498" stroke="black" stroke-width="6" stroke-linecap="round"/>
<path d="M150.206 119.573L154.961 113.009" stroke="black" stroke-width="6" stroke-linecap="round"/>
<path d="M126.751 122.968C123.948 122.421 121.201 121.352 118.479 120.525" stroke="black" stroke-width="6" stroke-linecap="round"/>
<path d="M122.185 151.577L113.333 157.776" stroke="black" stroke-width="6" stroke-linecap="round"/>
<path d="M142.975 156.529L144.405 164.496" stroke="black" stroke-width="6" stroke-linecap="round"/>
<path d="M160.302 141.526C163.721 141.957 167.151 142.229 170.582 142.55" stroke="black" stroke-width="6" stroke-linecap="round"/>
</svg>
