<svg width="352" height="374" viewBox="0 0 352 374" fill="none" xmlns="http://www.w3.org/2000/svg">
<path d="M168.371 273.387C186.248 259.231 210.533 245.044 225.755 227.656" stroke="black" stroke-width="6" stroke-linecap="round"/>
<path d="M159.197 265.267C179.029 244.999 202.934 228.279 224.701 210.364" stroke="black" stroke-width="6" stroke-linecap="round"/>
<path d="M146.109 249.865C160.244 235.609 176.246 221.935 189.089 206.418C190.616 204.573 191.995 203.854 194.166 202.967" stroke="black" stroke-width="6" stroke-linecap="round"/>
<path d="M136.255 240.051C147.441 225.445 158.838 206.152 172.782 193.855" stroke="black" stroke-width="6" stroke-linecap="round"/>
<path d="M113.683 230.433C129.974 217.176 144.1 197.205 155.889 179.867C157.15 178.014 157.96 175.923 158.833 173.875" stroke="black" stroke-width="6" stroke-linecap="round"/>
<path d="M228.614 256.288C232.81 270.81 233.38 281.493 249.047 284.595C254.064 285.588 259.374 279.22 261.734 275.746C264.752 271.301 266.94 269.275 265.547 264.007C264.907 261.588 261.261 257.726 264.051 258.915C272.795 262.641 278.318 266.156 283.801 256.739C290.52 245.2 296.67 233.719 290.344 220.228C287.011 213.12 272.7 218.159 279.555 212.067C291.505 201.447 308.192 183.821 310.955 167.438C312.817 156.4 303.918 127.557 287.342 135.202C282.062 137.638 277.497 141.659 272.07 143.841C269.876 144.722 275.194 94.2093 275.473 85.4013C276.223 61.7076 258.172 55.2622 238.831 69.0949C228.967 76.1495 222.613 87.954 214.187 96.7054C212.633 98.3198 203.404 110.697 201.296 110.219C200.381 110.011 199.369 97.3778 199.133 96.2302C195.646 79.2998 197.182 64.3223 183.952 52.343C169.701 39.4399 159.236 67.5662 154.887 77.7728C151.916 84.7452 150.907 93.675 153.53 100.952C155.177 105.521 158.05 111.584 150.719 106.387C137.672 97.1373 111.452 108.187 104.231 121.324C96.5658 135.271 100.459 148.328 110.618 160.276C116.734 167.469 126.617 171.912 134.923 166.475" stroke="black" stroke-width="6" stroke-linecap="round"/>
<path d="M154.528 153.793C149.518 149.457 147.702 148.187 149.101 141.371C150.608 134.03 157.125 132.357 163.379 132.872C164.684 132.98 166.03 133.397 166.898 134.437C167.273 134.886 169.454 138.912 170.074 138.447C171.152 137.638 170.15 134.402 169.998 133.489C169.582 130.996 169.213 128.557 169.898 126.058C171.813 119.066 176.651 120.86 181.843 122.14C187.726 123.59 185.332 132.284 188.476 136.048C188.69 136.305 190.953 132.632 191.021 132.532C192.688 130.074 194.271 127.543 195.987 125.12C197.956 122.34 200.322 119.201 203.272 117.402C209.25 113.754 217.497 109.192 224.632 109.847C227.396 110.101 231.608 112.143 233.587 113.987C235.806 116.054 235.347 118.66 234.422 121.407C232.399 127.411 229.45 131.061 224.522 134.817C223.594 135.523 222.304 136.621 221.182 136.699" stroke="black" stroke-width="6" stroke-linecap="round"/>
<path d="M237.739 150.119C245.694 152.392 253.863 154.399 261.612 157.345C262.937 157.849 264.214 158.321 264.983 159.55C267.085 162.909 263.447 167.438 260.633 169.003C259.403 169.687 255.703 168.995 256.556 170.117C256.938 170.617 258.504 171.075 258.906 171.246C262.397 172.733 265.867 174.293 269.409 175.657C274.82 177.741 280.468 178.902 286.009 180.553C287.53 181.006 288.002 182.658 288.142 184.152C288.464 187.57 285.967 191.668 284.515 194.553C282.11 199.33 280.387 202.091 275.637 204.895C268.75 208.96 262.641 207.757 255.971 203.721C253.363 202.143 254.193 202.778 255.27 205.441C256.855 209.354 258.992 213.972 261.425 217.416C264.363 221.574 269.134 224.663 271.082 229.474C272.217 232.277 270.728 234.406 268.82 236.517C264.945 240.807 258.912 246.102 253.244 242.051C249.689 239.51 248.632 237.971 246.932 233.916C246.403 232.655 247.596 236.919 247.721 237.424C248.404 240.181 248.431 242.976 248.97 245.739C249.41 247.988 248.592 249.711 248.519 251.856C248.417 254.812 246.905 254.916 244.636 253.949C239.451 251.74 237.091 248.823 234.094 244.268" stroke="black" stroke-width="6" stroke-linecap="round"/>
<path d="M237.023 188.035C235.157 190.258 232.322 193.768 230.165 195.902C229.358 196.7 228.14 197.849 226.898 198.105C226.375 198.213 224.701 197.781 224.329 197.35C223.781 196.715 223.373 194.764 223.267 194.317C222.8 192.35 222.08 188.688 221.791 186.731C221.389 184.001 221.368 181.567 221.947 178.888C221.977 178.751 222.459 177.029 222.072 177.664C219.925 181.189 216.431 183.677 212.778 185.366C207.219 187.934 201.012 188.014 195.208 186.426C191.152 185.317 189.089 183.013 187.77 179.022C185.34 171.671 187.949 164.85 190.85 158.041" stroke="black" stroke-width="6" stroke-linecap="round"/>
<path d="M222.125 153.822C220.264 155.347 216.102 158.808 213.965 160.404C213.335 160.875 211.944 161.972 210.913 162.145C210.142 162.274 209.065 161.489 208.506 161.08C205.802 159.102 203.683 156.185 202.159 153.242C201.086 151.169 201.219 149.438 201.674 147.265C202.305 144.251 203.515 141.497 204.714 138.683" stroke="black" stroke-width="6" stroke-linecap="round"/>
<path d="M253.007 124.17C255.131 113.378 259.653 101.581 256.198 90.7645C255.575 88.8143 255.26 85.667 252.48 87.0308C248.295 89.0838 246.071 92.7309 242.72 95.6067" stroke="black" stroke-width="6" stroke-linecap="round"/>
<path d="M197.374 273.059C203.417 280.783 210.099 288.378 215.484 296.607C216.445 298.075 216.311 299.694 216.113 301.361C215.934 302.867 215.804 304.2 214.419 305.068C210.057 307.802 204.25 310.463 199.149 311.363C195.756 311.962 193.616 313.959 194.856 317.82C195.9 321.072 197.277 324.003 199.437 326.63C201.081 328.63 206.31 333.577 204.685 336.353C201.272 342.183 195.826 343.341 189.645 344.118C182.354 345.034 176.722 342.267 171.997 336.769C166.051 329.85 163.33 323.2 162.548 314.198C162.043 308.389 163.926 302.508 164.398 296.727C164.655 293.568 163.79 291.022 161.029 289.091C154.028 284.192 145.198 286.244 138.011 289.455C127.134 294.315 116.643 303.078 103.866 299.452C100.569 298.516 100.349 291.78 100.394 289.114C100.556 279.349 105.511 270.776 110.326 262.656C112.6 258.82 118.27 252.369 112.178 248.73C106.617 245.408 96.2284 249.151 90.6654 250.45C84.6829 251.847 78.755 253.605 72.723 254.778C70.0329 255.3 66.7978 256.06 64.0377 255.734C45.7953 253.58 46.2203 226.08 50.8135 213.352C55.1653 201.293 69.1231 199.38 79.8517 203.952C80.6891 204.308 82.9996 205.869 83.8781 205.153C86.0524 203.38 87.7963 199.732 87.8578 197.019C87.9903 191.181 84.162 183.016 88.1217 177.643C89.5742 175.673 94.2403 177.703 95.9198 178.166C99.0408 179.026 101.085 180.076 102.918 182.777C105.651 186.805 107.365 191.141 109.602 195.426C110.744 197.613 112.672 200.896 112.464 203.446" stroke="black" stroke-width="6" stroke-linecap="round"/>
<path d="M98.9219 225.547L62.8386 241.052" stroke="black" stroke-width="6" stroke-linecap="round"/>
<path d="M133.765 265.659C126.414 272.835 120.317 281.565 113.807 289.439" stroke="black" stroke-width="6" stroke-linecap="round"/>
<path d="M182.822 292.177C182.177 301.132 181.727 310.151 180.645 319.064C180.479 320.434 180.429 320.852 180.001 321.856" stroke="black" stroke-width="6" stroke-linecap="round"/>
<path d="M146.232 308.87L138.99 332.454" stroke="black" stroke-width="6" stroke-linecap="round"/>
<path d="M80.5437 275.266L60.0589 290.399" stroke="black" stroke-width="6" stroke-linecap="round"/>
<path d="M64.7608 187.129L50.1133 155.622" stroke="black" stroke-width="6" stroke-linecap="round"/>
<path d="M217.644 322.456C222.85 326.878 227.945 331.366 232.932 335.988" stroke="black" stroke-width="6" stroke-linecap="round"/>
</svg>
