<svg width="339" height="322" viewBox="0 0 339 322" fill="none" xmlns="http://www.w3.org/2000/svg">
<path d="M115.132 190.554C141.279 188.642 169.545 184.224 196.067 186.873C204.123 187.677 207.559 193.382 212.72 198.917C217.513 204.059 221.422 209.198 227.626 212.934C236.632 218.357 244.767 217.655 254.459 213.188C259.979 210.644 266.163 204.236 266.003 197.738C265.892 193.222 265.279 188.717 262.669 184.865C258.996 179.444 252.863 176.047 247.299 172.921C241.215 169.505 235.138 165.343 242.626 159.019C248.318 154.211 256.965 155.48 263.93 155.159C271.664 154.802 279.654 149.448 280.744 141.09C282.224 129.744 265.839 120.604 257.036 117.237C240.656 110.973 218.345 122.916 209.792 137.118C207.941 140.192 206.588 143.553 203.066 144.941C197.777 147.024 192.977 147.464 187.367 147.024C172.302 145.842 157.29 145.657 142.226 144.818C132.263 144.262 121.699 146.006 111.822 144.542C107.428 143.891 105.115 139.182 103.983 135.341C100.58 123.797 96.5015 118.072 82.9885 116.93C70.6724 115.889 56.4677 120.889 52.0214 133.396C48.7127 142.703 51.373 151.501 61.5443 154.028C65.1957 154.935 79.4914 155.508 78.904 162.017C78.2563 169.196 71.7587 173.16 66.8507 177.384C61.8553 181.684 52.7595 187.871 52.5229 195.134C52.2557 203.336 56.7997 211.23 63.9056 215.373C81.473 225.618 100.403 217.864 111.836 202.906C114.952 198.83 114.116 196.016 115.426 191.739" stroke="black" stroke-width="6.8" stroke-linecap="round"/>
<path d="M72.9133 201.594C80.6183 200.333 88.9567 199.598 96.4215 197.18C98.2881 196.576 99.067 195.647 100.329 194.334C101.968 192.628 103.215 190.698 104.177 188.53C105.556 185.424 106.898 178.514 103.429 175.873C101.804 174.636 98.1062 179.397 97.2721 180.361C95.9203 181.923 94.527 183.122 92.7627 184.206C85.2544 188.82 78.2448 193.849 71.5059 199.409" stroke="black" stroke-width="6.8" stroke-linecap="round"/>
<path d="M219.916 154.959C223.215 149.121 226.485 143.265 229.768 137.417" stroke="black" stroke-width="6.8" stroke-linecap="round"/>
<path d="M228.173 154.241C232.173 150.27 235.821 145.858 240.926 143.321C243.829 141.878 246.911 140.914 249.83 139.54" stroke="black" stroke-width="6.8" stroke-linecap="round"/>
<path d="M123.861 225.872C131.828 224.541 142.913 221.058 151.018 224.22C151.857 224.547 154.276 228.384 154.624 228.106C158.466 225.034 160.995 219.729 163.534 215.589C164.78 213.557 165.392 211.683 166.975 214.078C170.881 219.988 174.852 225.995 179.212 231.583C180.151 232.788 180.533 233.532 181.515 232.112C183.61 229.084 185.451 225.721 186.886 222.333C187.958 219.802 188.557 216.98 189.936 214.585C190.374 213.823 190.827 213.053 191.325 212.328C192.789 210.199 199.552 217.356 199.85 217.615C208.048 224.765 214.955 233.08 223.917 239.274" stroke="black" stroke-width="6.8" stroke-linecap="round"/>
<path d="M101.754 107.835C107.192 112.515 112.438 117.433 118.107 121.83C122.086 124.916 123.147 125.297 125.925 121.567C128.505 118.103 130.766 114.003 133.596 110.755C135.159 108.962 141.435 117.848 142.291 118.766C142.662 119.165 149.911 127.383 151.148 126.357C152.985 124.834 153.744 122.349 154.93 120.279C157.91 115.077 160.931 109.908 164.024 104.773C165.725 101.947 166.642 105.209 168.216 107.541C171.812 112.871 175.2 118.344 179.057 123.493C181.841 127.21 182.523 123.33 184.687 120.327C193.5 108.098 203.717 96.9874 213.861 85.868" stroke="black" stroke-width="6.8" stroke-linecap="round"/>
<path d="M252.281 239.894C257.81 240.674 264.329 242.754 269.843 240.722C279.742 237.074 285.46 226.571 289.531 217.492C293.85 207.857 289.991 198.793 285.463 189.982C284.392 187.898 279.936 182.792 282.145 180.305C284.503 177.651 288.389 177.623 291.357 176.15C299.185 172.263 304.679 165.905 308.785 158.274C311.434 153.352 313.297 148.074 314.453 142.604C315.328 138.468 314.072 135.321 312.32 131.571C309.267 125.035 305.464 120.092 299.302 116.328C291.864 111.785 284.547 106.781 278.006 101.021" stroke="black" stroke-width="6.8" stroke-linecap="round"/>
<path d="M30.2565 202.938C29.8705 200.244 29.033 197.704 29.7355 195.086C30.9579 190.531 33.6537 186.766 36.7395 183.317C39.7751 179.924 44.0579 176.593 43.2362 171.491C42.9268 169.57 42.0358 167.969 41.0647 166.311C37.9628 161.014 33.6195 155.432 33.0361 149.134C32.2625 140.78 35.4788 132.252 38.1789 124.543C39.0715 121.995 40.0759 118.932 41.7217 116.654" stroke="black" stroke-width="6.8" stroke-linecap="round"/>
</svg>
