<svg width="405" height="231" viewBox="0 0 405 231" fill="none" xmlns="http://www.w3.org/2000/svg">
<path d="M61.3084 226.68C56.9943 194.23 53.1915 161.662 48.1204 129.318C46.508 119.034 43.7246 108.966 42.1571 98.6985C42.1276 98.5054 41.0495 90.6374 42.1571 90.671C47.9756 90.8473 61.7253 107.017 64.7488 109.708C80.8907 124.073 96.9492 138.916 114.061 152.139C123.376 159.337 122.994 150.361 125.07 141.818C133.804 105.867 139.287 69.2369 145.253 32.7583C145.36 32.107 148.585 11.0882 150.07 5.92355C151.591 0.627802 154.959 7.83819 155.517 8.84786C179.57 52.4046 200.608 97.6894 227.076 139.925C230.289 145.053 231.188 142.527 235.964 138.721C260.954 118.804 286.194 99.2716 311.824 80.1779C330.624 66.1713 350.781 52.9655 367.901 36.8294C373.813 31.2576 373.061 30.9114 370.367 40.6711C355.413 94.8444 338.181 150.048 331.72 206.038" stroke="#1E1E1E" stroke-width="8" stroke-linecap="round"/>
<path d="M113.946 218.423C108.708 204.827 103.058 191.284 98.6936 177.368C98.2701 176.018 94.0012 166.271 97.7762 168.481C105.731 173.137 113.231 178.716 120.712 184.077C125.037 187.177 131.848 194.261 137.455 195.488C139.473 195.929 142.155 188.274 142.386 187.804C150.502 171.33 157.909 154.587 163.946 137.231C165.691 132.212 167.395 127.146 168.648 121.979C168.78 121.434 170.444 115.279 171.17 116.589C181.375 134.996 190.315 154.305 199.725 173.125C253.932 281.539 183.708 141.126 208.67 191.474C209.701 193.553 210.106 193.349 212.34 192.449C241.873 180.54 268.466 163.805 293.647 144.456C297.186 141.736 299.92 138.213 303.395 135.511C305.93 133.538 303.877 142.025 303.108 145.144C296.82 170.644 284.382 194.13 278.051 219.455" stroke="#1E1E1E" stroke-width="8" stroke-linecap="round"/>
<path d="M105.63 107.555C96.2908 90.5255 87.9297 72.9529 79.3271 55.5479" stroke="#1E1E1E" stroke-width="8" stroke-linecap="round"/>
<path d="M235.35 87.8282L248.501 26.854" stroke="#1E1E1E" stroke-width="8" stroke-linecap="round"/>
<path d="M353.111 195.311C360.969 186.384 368.978 177.367 377.355 168.989" stroke="#1E1E1E" stroke-width="8" stroke-linecap="round"/>
<path d="M360.039 139.204C367.801 131.472 377.702 123.735 384.283 114.96" stroke="#1E1E1E" stroke-width="8" stroke-linecap="round"/>
<path d="M379.434 88.6383C385.986 80.5334 393.73 73.3097 400.907 65.7798" stroke="#1E1E1E" stroke-width="8" stroke-linecap="round"/>
<path d="M32.4 223.018C22.9454 216.305 13.4791 209.609 4 202.931" stroke="#1E1E1E" stroke-width="8" stroke-linecap="round"/>
<path d="M29.6292 181.458C27.5177 174.419 23.3975 168.481 19.9316 162.062" stroke="#1E1E1E" stroke-width="8" stroke-linecap="round"/>
<path d="M28.2443 138.511C25.546 130.326 21.6465 122.556 16.4688 115.652" stroke="#1E1E1E" stroke-width="8" stroke-linecap="round"/>
</svg>
